<svg width="640" height="480" viewBox="0 0 640 480" fill="none" xmlns="http://www.w3.org/2000/svg">
  <rect width="640" height="480" rx="32" fill="#EDF6EF"/>
  <path d="M335 101C315 140 310 177 316 212C328 204 340 196 355 182C390 150 394 107 394 80C369 83 350 91 335 101Z" fill="#2F6B4F"/>
  <path d="M229 151C257 174 276 205 282 247C253 243 224 235 195 214C154 184 149 141 152 109C183 117 208 129 229 151Z" fill="#8EB69B"/>
  <path d="M319 210C295 242 280 280 278 327H365C360 278 344 239 319 210Z" fill="#214B37"/>
  <path d="M221 346C221 320 242 299 268 299H372C398 299 419 320 419 346V366H221V346Z" fill="#D77F53"/>
  <rect x="206" y="366" width="228" height="34" rx="17" fill="#5B4435"/>
</svg>
